# Blender v2.92.0 OBJ File: 'line.blend'
# www.blender.org
mtllib line.mtl
o Plane
v -0.773492 0.000000 0.173812
v 0.773492 0.000000 0.173812
v -0.773492 0.000000 -0.173812
v 0.773492 0.000000 -0.173812
vt 0.000000 0.000000
vt 1.000000 0.000000
vt 1.000000 1.000000
vt 0.000000 1.000000
vn 0.0000 1.0000 0.0000
usemtl None
s off
f 1/1/1 2/2/1 4/3/1 3/4/1
o Plane.001_Plane.002
v -3.773492 0.000000 0.173812
v -2.226508 0.000000 0.173812
v -3.773492 0.000000 -0.173812
v -2.226508 0.000000 -0.173812
vt 0.000000 0.000000
vt 1.000000 0.000000
vt 1.000000 1.000000
vt 0.000000 1.000000
vn 0.0000 1.0000 0.0000
usemtl None
s off
f 5/5/2 6/6/2 8/7/2 7/8/2
o Plane.002_Plane.003
v 2.226508 0.000000 0.173812
v 3.773492 0.000000 0.173812
v 2.226508 0.000000 -0.173812
v 3.773492 0.000000 -0.173812
vt 0.000000 0.000000
vt 1.000000 0.000000
vt 1.000000 1.000000
vt 0.000000 1.000000
vn 0.0000 1.0000 0.0000
usemtl None
s off
f 9/9/3 10/10/3 12/11/3 11/12/3
o Plane.003_Plane.004
v 5.226509 0.000000 0.173812
v 6.773491 0.000000 0.173812
v 5.226509 0.000000 -0.173812
v 6.773491 0.000000 -0.173812
vt 0.000000 0.000000
vt 1.000000 0.000000
vt 1.000000 1.000000
vt 0.000000 1.000000
vn 0.0000 1.0000 0.0000
usemtl None
s off
f 13/13/4 14/14/4 16/15/4 15/16/4
o Plane.004_Plane.005
v 8.226508 0.000000 0.173812
v 9.773492 0.000000 0.173812
v 8.226508 0.000000 -0.173812
v 9.773492 0.000000 -0.173812
vt 0.000000 0.000000
vt 1.000000 0.000000
vt 1.000000 1.000000
vt 0.000000 1.000000
vn 0.0000 1.0000 0.0000
usemtl None
s off
f 17/17/5 18/18/5 20/19/5 19/20/5
o Plane.005
v 11.226508 0.000000 0.173812
v 12.773492 0.000000 0.173812
v 11.226508 0.000000 -0.173812
v 12.773492 0.000000 -0.173812
vt 0.000000 0.000000
vt 1.000000 0.000000
vt 1.000000 1.000000
vt 0.000000 1.000000
vn 0.0000 1.0000 0.0000
usemtl None
s off
f 21/21/6 22/22/6 24/23/6 23/24/6
o Plane.006
v 14.226508 0.000000 0.173812
v 15.773492 0.000000 0.173812
v 14.226508 0.000000 -0.173812
v 15.773492 0.000000 -0.173812
vt 0.000000 0.000000
vt 1.000000 0.000000
vt 1.000000 1.000000
vt 0.000000 1.000000
vn 0.0000 1.0000 0.0000
usemtl None
s off
f 25/25/7 26/26/7 28/27/7 27/28/7
