# Blender v2.92.0 OBJ File: 'pressbox.blend'
# www.blender.org
mtllib pressbox.mtl
o Cube_Cube.001
v -5.622242 -0.283506 10.766805
v -5.622242 0.283506 10.766805
v -5.622242 -0.283506 -10.766805
v -5.622242 0.283506 -10.766805
v 5.622242 -0.283506 10.766805
v 5.622242 0.283506 10.766805
v 5.622242 -0.283506 -10.766805
v 5.622242 0.283506 -10.766805
vt 0.375000 0.000000
vt 0.625000 0.000000
vt 0.625000 0.250000
vt 0.375000 0.250000
vt 0.625000 0.500000
vt 0.375000 0.500000
vt 0.625000 0.750000
vt 0.375000 0.750000
vt 0.625000 1.000000
vt 0.375000 1.000000
vt 0.125000 0.500000
vt 0.125000 0.750000
vt 0.875000 0.500000
vt 0.875000 0.750000
vn -1.0000 0.0000 0.0000
vn 0.0000 0.0000 -1.0000
vn 1.0000 0.0000 0.0000
vn 0.0000 0.0000 1.0000
vn 0.0000 -1.0000 0.0000
vn 0.0000 1.0000 0.0000
usemtl None
s off
f 1/1/1 2/2/1 4/3/1 3/4/1
f 3/4/2 4/3/2 8/5/2 7/6/2
f 7/6/3 8/5/3 6/7/3 5/8/3
f 5/8/4 6/7/4 2/9/4 1/10/4
f 3/11/5 7/6/5 5/8/5 1/12/5
f 8/5/6 4/13/6 2/14/6 6/7/6
o Cylinder
v -1.798437 -0.189914 -10.618705
v -1.798437 4.001204 -10.618705
v -1.195447 -0.189914 -10.414669
v -1.195447 4.001204 -10.414669
v -0.615630 -0.189914 -9.810404
v -0.615630 4.001204 -9.810404
v -0.081267 -0.189914 -8.829130
v -0.081267 4.001204 -8.829130
v 0.387105 -0.189914 -7.508558
v 0.387105 4.001204 -7.508558
v 0.771489 -0.189914 -5.899436
v 0.771489 4.001204 -5.899436
v 1.057111 -0.189914 -4.063602
v 1.057111 4.001204 -4.063602
v 1.232997 -0.189914 -2.071607
v 1.232997 4.001204 -2.071607
v 1.292386 -0.189914 -0.000001
v 1.292386 4.001204 -0.000001
v 1.232997 -0.189914 2.071605
v 1.232997 4.001204 2.071605
v 1.057112 -0.189914 4.063601
v 1.057112 4.001204 4.063601
v 0.771489 -0.189914 5.899436
v 0.771489 4.001204 5.899436
v 0.387105 -0.189914 7.508558
v 0.387105 4.001204 7.508558
v -0.081267 -0.189914 8.829131
v -0.081267 4.001204 8.829131
v -0.615630 -0.189914 9.810405
v -0.615630 4.001204 9.810405
v -1.195448 -0.189914 10.414670
v -1.195448 4.001204 10.414670
v -1.798437 -0.189914 10.618705
v -1.798437 4.001204 10.618705
v -2.401427 -0.189914 10.414668
v -2.401427 4.001204 10.414668
v -2.981245 -0.189914 9.810402
v -2.981245 4.001204 9.810402
v -3.515607 -0.189914 8.829127
v -3.515607 4.001204 8.829127
v -3.983980 -0.189914 7.508554
v -3.983980 4.001204 7.508554
v -4.368363 -0.189914 5.899430
v -4.368363 4.001204 5.899430
v -4.653986 -0.189914 4.063594
v -4.653986 4.001204 4.063594
v -4.829871 -0.189914 2.071597
v -4.829871 4.001204 2.071597
v -4.889259 -0.189914 -0.000010
v -4.889259 4.001204 -0.000010
v -4.829870 -0.189914 -2.071617
v -4.829870 4.001204 -2.071617
v -4.653983 -0.189914 -4.063613
v -4.653983 4.001204 -4.063613
v -4.368360 -0.189914 -5.899447
v -4.368360 4.001204 -5.899447
v -3.983975 -0.189914 -7.508567
v -3.983975 4.001204 -7.508567
v -3.515602 -0.189914 -8.829139
v -3.515602 4.001204 -8.829139
v -2.981239 -0.189914 -9.810410
v -2.981239 4.001204 -9.810410
v -2.401422 -0.189914 -10.414672
v -2.401422 4.001204 -10.414672
vt 1.000000 0.500000
vt 1.000000 1.000000
vt 0.968750 1.000000
vt 0.968750 0.500000
vt 0.937500 1.000000
vt 0.937500 0.500000
vt 0.906250 1.000000
vt 0.906250 0.500000
vt 0.875000 1.000000
vt 0.875000 0.500000
vt 0.843750 1.000000
vt 0.843750 0.500000
vt 0.812500 1.000000
vt 0.812500 0.500000
vt 0.781250 1.000000
vt 0.781250 0.500000
vt 0.750000 1.000000
vt 0.750000 0.500000
vt 0.718750 1.000000
vt 0.718750 0.500000
vt 0.687500 1.000000
vt 0.687500 0.500000
vt 0.656250 1.000000
vt 0.656250 0.500000
vt 0.625000 1.000000
vt 0.625000 0.500000
vt 0.593750 1.000000
vt 0.593750 0.500000
vt 0.562500 1.000000
vt 0.562500 0.500000
vt 0.531250 1.000000
vt 0.531250 0.500000
vt 0.500000 1.000000
vt 0.500000 0.500000
vt 0.468750 1.000000
vt 0.468750 0.500000
vt 0.437500 1.000000
vt 0.437500 0.500000
vt 0.406250 1.000000
vt 0.406250 0.500000
vt 0.375000 1.000000
vt 0.375000 0.500000
vt 0.343750 1.000000
vt 0.343750 0.500000
vt 0.312500 1.000000
vt 0.312500 0.500000
vt 0.281250 1.000000
vt 0.281250 0.500000
vt 0.250000 1.000000
vt 0.250000 0.500000
vt 0.218750 1.000000
vt 0.218750 0.500000
vt 0.187500 1.000000
vt 0.187500 0.500000
vt 0.156250 1.000000
vt 0.156250 0.500000
vt 0.125000 1.000000
vt 0.125000 0.500000
vt 0.093750 1.000000
vt 0.093750 0.500000
vt 0.062500 1.000000
vt 0.062500 0.500000
vt 0.296822 0.485388
vt 0.250000 0.490000
vt 0.203179 0.485389
vt 0.158156 0.471731
vt 0.116663 0.449553
vt 0.080295 0.419706
vt 0.050447 0.383337
vt 0.028269 0.341844
vt 0.014612 0.296822
vt 0.010000 0.250000
vt 0.014611 0.203179
vt 0.028269 0.158156
vt 0.050447 0.116663
vt 0.080294 0.080294
vt 0.116663 0.050447
vt 0.158156 0.028269
vt 0.203178 0.014612
vt 0.250000 0.010000
vt 0.296822 0.014612
vt 0.341844 0.028269
vt 0.383337 0.050447
vt 0.419706 0.080294
vt 0.449553 0.116663
vt 0.471731 0.158156
vt 0.485388 0.203178
vt 0.490000 0.250000
vt 0.485388 0.296822
vt 0.471731 0.341844
vt 0.449553 0.383337
vt 0.419706 0.419706
vt 0.383337 0.449553
vt 0.341844 0.471731
vt 0.031250 1.000000
vt 0.031250 0.500000
vt 0.000000 1.000000
vt 0.000000 0.500000
vt 0.750000 0.490000
vt 0.796822 0.485388
vt 0.841844 0.471731
vt 0.883337 0.449553
vt 0.919706 0.419706
vt 0.949553 0.383337
vt 0.971731 0.341844
vt 0.985388 0.296822
vt 0.990000 0.250000
vt 0.985388 0.203178
vt 0.971731 0.158156
vt 0.949553 0.116663
vt 0.919706 0.080294
vt 0.883337 0.050447
vt 0.841844 0.028269
vt 0.796822 0.014612
vt 0.750000 0.010000
vt 0.703178 0.014612
vt 0.658156 0.028269
vt 0.616663 0.050447
vt 0.580294 0.080294
vt 0.550447 0.116663
vt 0.528269 0.158156
vt 0.514611 0.203179
vt 0.510000 0.250000
vt 0.514612 0.296822
vt 0.528269 0.341844
vt 0.550447 0.383337
vt 0.580295 0.419706
vt 0.616663 0.449553
vt 0.658156 0.471731
vt 0.703179 0.485389
vn 0.3205 0.0000 -0.9472
vn 0.7216 0.0000 -0.6924
vn 0.8782 0.0000 -0.4782
vn 0.9425 0.0000 -0.3343
vn 0.9726 0.0000 -0.2323
vn 0.9881 0.0000 -0.1537
vn 0.9961 0.0000 -0.0880
vn 0.9996 0.0000 -0.0287
vn 0.9996 0.0000 0.0287
vn 0.9961 0.0000 0.0880
vn 0.9881 0.0000 0.1537
vn 0.9726 0.0000 0.2323
vn 0.9425 0.0000 0.3343
vn 0.8782 0.0000 0.4782
vn 0.7216 0.0000 0.6924
vn 0.3205 0.0000 0.9472
vn -0.3205 0.0000 0.9472
vn -0.7216 0.0000 0.6924
vn -0.8782 0.0000 0.4782
vn -0.9425 0.0000 0.3343
vn -0.9726 0.0000 0.2323
vn -0.9881 0.0000 0.1537
vn -0.9961 0.0000 0.0880
vn -0.9996 0.0000 0.0287
vn -0.9996 0.0000 -0.0287
vn -0.9961 0.0000 -0.0880
vn -0.9881 0.0000 -0.1537
vn -0.9726 0.0000 -0.2323
vn -0.9425 0.0000 -0.3343
vn -0.8782 0.0000 -0.4782
vn 0.0000 1.0000 -0.0000
vn -0.7216 0.0000 -0.6924
vn -0.3205 0.0000 -0.9472
vn 0.0000 -1.0000 0.0000
usemtl None
s off
f 9/15/7 10/16/7 12/17/7 11/18/7
f 11/18/8 12/17/8 14/19/8 13/20/8
f 13/20/9 14/19/9 16/21/9 15/22/9
f 15/22/10 16/21/10 18/23/10 17/24/10
f 17/24/11 18/23/11 20/25/11 19/26/11
f 19/26/12 20/25/12 22/27/12 21/28/12
f 21/28/13 22/27/13 24/29/13 23/30/13
f 23/30/14 24/29/14 26/31/14 25/32/14
f 25/32/15 26/31/15 28/33/15 27/34/15
f 27/34/16 28/33/16 30/35/16 29/36/16
f 29/36/17 30/35/17 32/37/17 31/38/17
f 31/38/18 32/37/18 34/39/18 33/40/18
f 33/40/19 34/39/19 36/41/19 35/42/19
f 35/42/20 36/41/20 38/43/20 37/44/20
f 37/44/21 38/43/21 40/45/21 39/46/21
f 39/46/22 40/45/22 42/47/22 41/48/22
f 41/48/23 42/47/23 44/49/23 43/50/23
f 43/50/24 44/49/24 46/51/24 45/52/24
f 45/52/25 46/51/25 48/53/25 47/54/25
f 47/54/26 48/53/26 50/55/26 49/56/26
f 49/56/27 50/55/27 52/57/27 51/58/27
f 51/58/28 52/57/28 54/59/28 53/60/28
f 53/60/29 54/59/29 56/61/29 55/62/29
f 55/62/30 56/61/30 58/63/30 57/64/30
f 57/64/31 58/63/31 60/65/31 59/66/31
f 59/66/32 60/65/32 62/67/32 61/68/32
f 61/68/33 62/67/33 64/69/33 63/70/33
f 63/70/34 64/69/34 66/71/34 65/72/34
f 65/72/35 66/71/35 68/73/35 67/74/35
f 67/74/36 68/73/36 70/75/36 69/76/36
f 12/77/37 10/78/37 72/79/37 70/80/37 68/81/37 66/82/37 64/83/37 62/84/37 60/85/37 58/86/37 56/87/37 54/88/37 52/89/37 50/90/37 48/91/37 46/92/37 44/93/37 42/94/37 40/95/37 38/96/37 36/97/37 34/98/37 32/99/37 30/100/37 28/101/37 26/102/37 24/103/37 22/104/37 20/105/37 18/106/37 16/107/37 14/108/37
f 69/76/38 70/75/38 72/109/38 71/110/38
f 71/110/39 72/109/39 10/111/39 9/112/39
f 9/113/40 11/114/40 13/115/40 15/116/40 17/117/40 19/118/40 21/119/40 23/120/40 25/121/40 27/122/40 29/123/40 31/124/40 33/125/40 35/126/40 37/127/40 39/128/40 41/129/40 43/130/40 45/131/40 47/132/40 49/133/40 51/134/40 53/135/40 55/136/40 57/137/40 59/138/40 61/139/40 63/140/40 65/141/40 67/142/40 69/143/40 71/144/40
o Cylinder.001
v -0.183266 -0.048065 -10.690687
v -0.183266 2.784283 -10.690687
v 0.419723 -0.048065 -10.486651
v 0.419723 2.784283 -10.486651
v 0.999540 -0.048065 -9.882386
v 0.999540 2.784283 -9.882386
v 1.533903 -0.048065 -8.901113
v 1.533903 2.784283 -8.901113
v 2.002275 -0.048065 -7.580540
v 2.002275 2.784283 -7.580540
v 2.386659 -0.048065 -5.971418
v 2.386659 2.784283 -5.971418
v 2.672282 -0.048065 -4.135584
v 2.672282 2.784283 -4.135584
v 2.848167 -0.048065 -2.143589
v 2.848167 2.784283 -2.143589
v 2.907557 -0.048065 -0.071983
v 2.907557 2.784283 -0.071983
v 2.848167 -0.048065 1.999623
v 2.848167 2.784283 1.999623
v 2.672282 -0.048065 3.991619
v 2.672282 2.784283 3.991619
v 2.386659 -0.048065 5.827454
v 2.386659 2.784283 5.827454
v 2.002275 -0.048065 7.436576
v 2.002275 2.784283 7.436576
v 1.533903 -0.048065 8.757149
v 1.533903 2.784283 8.757149
v 0.999540 -0.048065 9.738422
v 0.999540 2.784283 9.738422
v 0.419722 -0.048065 10.342688
v 0.419722 2.784283 10.342688
v -0.183267 -0.048065 10.546722
v -0.183267 2.784283 10.546722
v -0.786257 -0.048065 10.342686
v -0.786257 2.784283 10.342686
v -1.366074 -0.048065 9.738420
v -1.366074 2.784283 9.738420
v -1.900437 -0.048065 8.757145
v -1.900437 2.784283 8.757145
v -2.368810 -0.048065 7.436572
v -2.368810 2.784283 7.436572
v -2.753193 -0.048065 5.827448
v -2.753193 2.784283 5.827448
v -3.038815 -0.048065 3.991612
v -3.038815 2.784283 3.991612
v -3.214700 -0.048065 1.999615
v -3.214700 2.784283 1.999615
v -3.274089 -0.048065 -0.071992
v -3.274089 2.784283 -0.071992
v -3.214700 -0.048065 -2.143599
v -3.214700 2.784283 -2.143599
v -3.038813 -0.048065 -4.135595
v -3.038813 2.784283 -4.135595
v -2.753190 -0.048065 -5.971429
v -2.753190 2.784283 -5.971429
v -2.368805 -0.048065 -7.580549
v -2.368805 2.784283 -7.580549
v -1.900432 -0.048065 -8.901121
v -1.900432 2.784283 -8.901121
v -1.366069 -0.048065 -9.882393
v -1.366069 2.784283 -9.882393
v -0.786251 -0.048065 -10.486654
v -0.786251 2.784283 -10.486654
vt 1.000000 0.500000
vt 1.000000 1.000000
vt 0.968750 1.000000
vt 0.968750 0.500000
vt 0.937500 1.000000
vt 0.937500 0.500000
vt 0.906250 1.000000
vt 0.906250 0.500000
vt 0.875000 1.000000
vt 0.875000 0.500000
vt 0.843750 1.000000
vt 0.843750 0.500000
vt 0.812500 1.000000
vt 0.812500 0.500000
vt 0.781250 1.000000
vt 0.781250 0.500000
vt 0.750000 1.000000
vt 0.750000 0.500000
vt 0.718750 1.000000
vt 0.718750 0.500000
vt 0.687500 1.000000
vt 0.687500 0.500000
vt 0.656250 1.000000
vt 0.656250 0.500000
vt 0.625000 1.000000
vt 0.625000 0.500000
vt 0.593750 1.000000
vt 0.593750 0.500000
vt 0.562500 1.000000
vt 0.562500 0.500000
vt 0.531250 1.000000
vt 0.531250 0.500000
vt 0.500000 1.000000
vt 0.500000 0.500000
vt 0.468750 1.000000
vt 0.468750 0.500000
vt 0.437500 1.000000
vt 0.437500 0.500000
vt 0.406250 1.000000
vt 0.406250 0.500000
vt 0.375000 1.000000
vt 0.375000 0.500000
vt 0.343750 1.000000
vt 0.343750 0.500000
vt 0.312500 1.000000
vt 0.312500 0.500000
vt 0.281250 1.000000
vt 0.281250 0.500000
vt 0.250000 1.000000
vt 0.250000 0.500000
vt 0.218750 1.000000
vt 0.218750 0.500000
vt 0.187500 1.000000
vt 0.187500 0.500000
vt 0.156250 1.000000
vt 0.156250 0.500000
vt 0.125000 1.000000
vt 0.125000 0.500000
vt 0.093750 1.000000
vt 0.093750 0.500000
vt 0.062500 1.000000
vt 0.062500 0.500000
vt 0.296822 0.485388
vt 0.250000 0.490000
vt 0.203179 0.485389
vt 0.158156 0.471731
vt 0.116663 0.449553
vt 0.080295 0.419706
vt 0.050447 0.383337
vt 0.028269 0.341844
vt 0.014612 0.296822
vt 0.010000 0.250000
vt 0.014611 0.203179
vt 0.028269 0.158156
vt 0.050447 0.116663
vt 0.080294 0.080294
vt 0.116663 0.050447
vt 0.158156 0.028269
vt 0.203178 0.014612
vt 0.250000 0.010000
vt 0.296822 0.014612
vt 0.341844 0.028269
vt 0.383337 0.050447
vt 0.419706 0.080294
vt 0.449553 0.116663
vt 0.471731 0.158156
vt 0.485388 0.203178
vt 0.490000 0.250000
vt 0.485388 0.296822
vt 0.471731 0.341844
vt 0.449553 0.383337
vt 0.419706 0.419706
vt 0.383337 0.449553
vt 0.341844 0.471731
vt 0.031250 1.000000
vt 0.031250 0.500000
vt 0.000000 1.000000
vt 0.000000 0.500000
vt 0.750000 0.490000
vt 0.796822 0.485388
vt 0.841844 0.471731
vt 0.883337 0.449553
vt 0.919706 0.419706
vt 0.949553 0.383337
vt 0.971731 0.341844
vt 0.985388 0.296822
vt 0.990000 0.250000
vt 0.985388 0.203178
vt 0.971731 0.158156
vt 0.949553 0.116663
vt 0.919706 0.080294
vt 0.883337 0.050447
vt 0.841844 0.028269
vt 0.796822 0.014612
vt 0.750000 0.010000
vt 0.703178 0.014612
vt 0.658156 0.028269
vt 0.616663 0.050447
vt 0.580294 0.080294
vt 0.550447 0.116663
vt 0.528269 0.158156
vt 0.514611 0.203179
vt 0.510000 0.250000
vt 0.514612 0.296822
vt 0.528269 0.341844
vt 0.550447 0.383337
vt 0.580295 0.419706
vt 0.616663 0.449553
vt 0.658156 0.471731
vt 0.703179 0.485389
vn 0.3205 0.0000 -0.9472
vn 0.7216 0.0000 -0.6924
vn 0.8782 0.0000 -0.4782
vn 0.9425 0.0000 -0.3343
vn 0.9726 0.0000 -0.2323
vn 0.9881 0.0000 -0.1537
vn 0.9961 0.0000 -0.0880
vn 0.9996 0.0000 -0.0287
vn 0.9996 0.0000 0.0287
vn 0.9961 0.0000 0.0880
vn 0.9881 0.0000 0.1537
vn 0.9726 0.0000 0.2323
vn 0.9425 0.0000 0.3343
vn 0.8782 0.0000 0.4782
vn 0.7216 0.0000 0.6924
vn 0.3205 0.0000 0.9472
vn -0.3205 0.0000 0.9472
vn -0.7216 0.0000 0.6924
vn -0.8782 0.0000 0.4782
vn -0.9425 0.0000 0.3343
vn -0.9726 0.0000 0.2323
vn -0.9881 0.0000 0.1537
vn -0.9961 0.0000 0.0880
vn -0.9996 0.0000 0.0287
vn -0.9996 0.0000 -0.0287
vn -0.9961 0.0000 -0.0880
vn -0.9881 0.0000 -0.1537
vn -0.9726 0.0000 -0.2323
vn -0.9425 0.0000 -0.3343
vn -0.8782 0.0000 -0.4782
vn 0.0000 1.0000 0.0000
vn -0.7216 0.0000 -0.6924
vn -0.3205 0.0000 -0.9472
vn 0.0000 -1.0000 -0.0000
usemtl None
s off
f 73/145/41 74/146/41 76/147/41 75/148/41
f 75/148/42 76/147/42 78/149/42 77/150/42
f 77/150/43 78/149/43 80/151/43 79/152/43
f 79/152/44 80/151/44 82/153/44 81/154/44
f 81/154/45 82/153/45 84/155/45 83/156/45
f 83/156/46 84/155/46 86/157/46 85/158/46
f 85/158/47 86/157/47 88/159/47 87/160/47
f 87/160/48 88/159/48 90/161/48 89/162/48
f 89/162/49 90/161/49 92/163/49 91/164/49
f 91/164/50 92/163/50 94/165/50 93/166/50
f 93/166/51 94/165/51 96/167/51 95/168/51
f 95/168/52 96/167/52 98/169/52 97/170/52
f 97/170/53 98/169/53 100/171/53 99/172/53
f 99/172/54 100/171/54 102/173/54 101/174/54
f 101/174/55 102/173/55 104/175/55 103/176/55
f 103/176/56 104/175/56 106/177/56 105/178/56
f 105/178/57 106/177/57 108/179/57 107/180/57
f 107/180/58 108/179/58 110/181/58 109/182/58
f 109/182/59 110/181/59 112/183/59 111/184/59
f 111/184/60 112/183/60 114/185/60 113/186/60
f 113/186/61 114/185/61 116/187/61 115/188/61
f 115/188/62 116/187/62 118/189/62 117/190/62
f 117/190/63 118/189/63 120/191/63 119/192/63
f 119/192/64 120/191/64 122/193/64 121/194/64
f 121/194/65 122/193/65 124/195/65 123/196/65
f 123/196/66 124/195/66 126/197/66 125/198/66
f 125/198/67 126/197/67 128/199/67 127/200/67
f 127/200/68 128/199/68 130/201/68 129/202/68
f 129/202/69 130/201/69 132/203/69 131/204/69
f 131/204/70 132/203/70 134/205/70 133/206/70
f 76/207/71 74/208/71 136/209/71 134/210/71 132/211/71 130/212/71 128/213/71 126/214/71 124/215/71 122/216/71 120/217/71 118/218/71 116/219/71 114/220/71 112/221/71 110/222/71 108/223/71 106/224/71 104/225/71 102/226/71 100/227/71 98/228/71 96/229/71 94/230/71 92/231/71 90/232/71 88/233/71 86/234/71 84/235/71 82/236/71 80/237/71 78/238/71
f 133/206/72 134/205/72 136/239/72 135/240/72
f 135/240/73 136/239/73 74/241/73 73/242/73
f 73/243/74 75/244/74 77/245/74 79/246/74 81/247/74 83/248/74 85/249/74 87/250/74 89/251/74 91/252/74 93/253/74 95/254/74 97/255/74 99/256/74 101/257/74 103/258/74 105/259/74 107/260/74 109/261/74 111/262/74 113/263/74 115/264/74 117/265/74 119/266/74 121/267/74 123/268/74 125/269/74 127/270/74 129/271/74 131/272/74 133/273/74 135/274/74
o Cylinder.002
v 1.859370 0.032882 -11.356747
v 1.859370 1.743479 -11.356747
v 2.462360 0.032882 -11.152711
v 2.462360 1.743479 -11.152711
v 3.042177 0.032882 -10.548446
v 3.042177 1.743479 -10.548446
v 3.576540 0.032882 -9.567172
v 3.576540 1.743479 -9.567172
v 4.044912 0.032882 -8.246600
v 4.044912 1.743479 -8.246600
v 4.429296 0.032882 -6.637477
v 4.429296 1.743479 -6.637477
v 4.714918 0.032882 -4.801644
v 4.714918 1.743479 -4.801644
v 4.890804 0.032882 -2.809649
v 4.890804 1.743479 -2.809649
v 4.950193 0.032882 -0.738042
v 4.950193 1.743479 -0.738042
v 4.890804 0.032882 1.333564
v 4.890804 1.743479 1.333564
v 4.714919 0.032882 3.325559
v 4.714919 1.743479 3.325559
v 4.429296 0.032882 5.161395
v 4.429296 1.743479 5.161395
v 4.044912 0.032882 6.770517
v 4.044912 1.743479 6.770517
v 3.576540 0.032882 8.091089
v 3.576540 1.743479 8.091089
v 3.042177 0.032882 9.072363
v 3.042177 1.743479 9.072363
v 2.462359 0.032882 9.676628
v 2.462359 1.743479 9.676628
v 1.859369 0.032882 9.880663
v 1.859369 1.743479 9.880663
v 1.256379 0.032882 9.676626
v 1.256379 1.743479 9.676626
v 0.676562 0.032882 9.072360
v 0.676562 1.743479 9.072360
v 0.142200 0.032882 8.091085
v 0.142200 1.743479 8.091085
v -0.326173 0.032882 6.770512
v -0.326173 1.743479 6.770512
v -0.710556 0.032882 5.161389
v -0.710556 1.743479 5.161389
v -0.996179 0.032882 3.325553
v -0.996179 1.743479 3.325553
v -1.172064 0.032882 1.333556
v -1.172064 1.743479 1.333556
v -1.231453 0.032882 -0.738052
v -1.231453 1.743479 -0.738052
v -1.172063 0.032882 -2.809659
v -1.172063 1.743479 -2.809659
v -0.996176 0.032882 -4.801655
v -0.996176 1.743479 -4.801655
v -0.710553 0.032882 -6.637488
v -0.710553 1.743479 -6.637488
v -0.326169 0.032882 -8.246609
v -0.326169 1.743479 -8.246609
v 0.142205 0.032882 -9.567181
v 0.142205 1.743479 -9.567181
v 0.676568 0.032882 -10.548452
v 0.676568 1.743479 -10.548452
v 1.256385 0.032882 -11.152714
v 1.256385 1.743479 -11.152714
vt 1.000000 0.500000
vt 1.000000 1.000000
vt 0.968750 1.000000
vt 0.968750 0.500000
vt 0.937500 1.000000
vt 0.937500 0.500000
vt 0.906250 1.000000
vt 0.906250 0.500000
vt 0.875000 1.000000
vt 0.875000 0.500000
vt 0.843750 1.000000
vt 0.843750 0.500000
vt 0.812500 1.000000
vt 0.812500 0.500000
vt 0.781250 1.000000
vt 0.781250 0.500000
vt 0.750000 1.000000
vt 0.750000 0.500000
vt 0.718750 1.000000
vt 0.718750 0.500000
vt 0.687500 1.000000
vt 0.687500 0.500000
vt 0.656250 1.000000
vt 0.656250 0.500000
vt 0.625000 1.000000
vt 0.625000 0.500000
vt 0.593750 1.000000
vt 0.593750 0.500000
vt 0.562500 1.000000
vt 0.562500 0.500000
vt 0.531250 1.000000
vt 0.531250 0.500000
vt 0.500000 1.000000
vt 0.500000 0.500000
vt 0.468750 1.000000
vt 0.468750 0.500000
vt 0.437500 1.000000
vt 0.437500 0.500000
vt 0.406250 1.000000
vt 0.406250 0.500000
vt 0.375000 1.000000
vt 0.375000 0.500000
vt 0.343750 1.000000
vt 0.343750 0.500000
vt 0.312500 1.000000
vt 0.312500 0.500000
vt 0.281250 1.000000
vt 0.281250 0.500000
vt 0.250000 1.000000
vt 0.250000 0.500000
vt 0.218750 1.000000
vt 0.218750 0.500000
vt 0.187500 1.000000
vt 0.187500 0.500000
vt 0.156250 1.000000
vt 0.156250 0.500000
vt 0.125000 1.000000
vt 0.125000 0.500000
vt 0.093750 1.000000
vt 0.093750 0.500000
vt 0.062500 1.000000
vt 0.062500 0.500000
vt 0.296822 0.485388
vt 0.250000 0.490000
vt 0.203179 0.485389
vt 0.158156 0.471731
vt 0.116663 0.449553
vt 0.080295 0.419706
vt 0.050447 0.383337
vt 0.028269 0.341844
vt 0.014612 0.296822
vt 0.010000 0.250000
vt 0.014611 0.203179
vt 0.028269 0.158156
vt 0.050447 0.116663
vt 0.080294 0.080294
vt 0.116663 0.050447
vt 0.158156 0.028269
vt 0.203178 0.014612
vt 0.250000 0.010000
vt 0.296822 0.014612
vt 0.341844 0.028269
vt 0.383337 0.050447
vt 0.419706 0.080294
vt 0.449553 0.116663
vt 0.471731 0.158156
vt 0.485388 0.203178
vt 0.490000 0.250000
vt 0.485388 0.296822
vt 0.471731 0.341844
vt 0.449553 0.383337
vt 0.419706 0.419706
vt 0.383337 0.449553
vt 0.341844 0.471731
vt 0.031250 1.000000
vt 0.031250 0.500000
vt 0.000000 1.000000
vt 0.000000 0.500000
vt 0.750000 0.490000
vt 0.796822 0.485388
vt 0.841844 0.471731
vt 0.883337 0.449553
vt 0.919706 0.419706
vt 0.949553 0.383337
vt 0.971731 0.341844
vt 0.985388 0.296822
vt 0.990000 0.250000
vt 0.985388 0.203178
vt 0.971731 0.158156
vt 0.949553 0.116663
vt 0.919706 0.080294
vt 0.883337 0.050447
vt 0.841844 0.028269
vt 0.796822 0.014612
vt 0.750000 0.010000
vt 0.703178 0.014612
vt 0.658156 0.028269
vt 0.616663 0.050447
vt 0.580294 0.080294
vt 0.550447 0.116663
vt 0.528269 0.158156
vt 0.514611 0.203179
vt 0.510000 0.250000
vt 0.514612 0.296822
vt 0.528269 0.341844
vt 0.550447 0.383337
vt 0.580295 0.419706
vt 0.616663 0.449553
vt 0.658156 0.471731
vt 0.703179 0.485389
vn 0.3205 0.0000 -0.9472
vn 0.7216 0.0000 -0.6924
vn 0.8782 0.0000 -0.4782
vn 0.9425 0.0000 -0.3343
vn 0.9726 0.0000 -0.2323
vn 0.9881 0.0000 -0.1537
vn 0.9961 0.0000 -0.0880
vn 0.9996 0.0000 -0.0287
vn 0.9996 0.0000 0.0287
vn 0.9961 0.0000 0.0880
vn 0.9881 0.0000 0.1537
vn 0.9726 0.0000 0.2323
vn 0.9425 0.0000 0.3343
vn 0.8782 0.0000 0.4782
vn 0.7216 0.0000 0.6924
vn 0.3205 0.0000 0.9472
vn -0.3205 0.0000 0.9472
vn -0.7216 0.0000 0.6924
vn -0.8782 0.0000 0.4782
vn -0.9425 0.0000 0.3343
vn -0.9726 0.0000 0.2323
vn -0.9881 0.0000 0.1537
vn -0.9961 0.0000 0.0880
vn -0.9996 0.0000 0.0287
vn -0.9996 0.0000 -0.0287
vn -0.9961 0.0000 -0.0880
vn -0.9881 0.0000 -0.1537
vn -0.9726 0.0000 -0.2323
vn -0.9425 0.0000 -0.3343
vn -0.8782 0.0000 -0.4782
vn 0.0000 1.0000 0.0000
vn -0.7216 0.0000 -0.6924
vn -0.3205 0.0000 -0.9472
vn 0.0000 -1.0000 0.0000
usemtl None
s off
f 137/275/75 138/276/75 140/277/75 139/278/75
f 139/278/76 140/277/76 142/279/76 141/280/76
f 141/280/77 142/279/77 144/281/77 143/282/77
f 143/282/78 144/281/78 146/283/78 145/284/78
f 145/284/79 146/283/79 148/285/79 147/286/79
f 147/286/80 148/285/80 150/287/80 149/288/80
f 149/288/81 150/287/81 152/289/81 151/290/81
f 151/290/82 152/289/82 154/291/82 153/292/82
f 153/292/83 154/291/83 156/293/83 155/294/83
f 155/294/84 156/293/84 158/295/84 157/296/84
f 157/296/85 158/295/85 160/297/85 159/298/85
f 159/298/86 160/297/86 162/299/86 161/300/86
f 161/300/87 162/299/87 164/301/87 163/302/87
f 163/302/88 164/301/88 166/303/88 165/304/88
f 165/304/89 166/303/89 168/305/89 167/306/89
f 167/306/90 168/305/90 170/307/90 169/308/90
f 169/308/91 170/307/91 172/309/91 171/310/91
f 171/310/92 172/309/92 174/311/92 173/312/92
f 173/312/93 174/311/93 176/313/93 175/314/93
f 175/314/94 176/313/94 178/315/94 177/316/94
f 177/316/95 178/315/95 180/317/95 179/318/95
f 179/318/96 180/317/96 182/319/96 181/320/96
f 181/320/97 182/319/97 184/321/97 183/322/97
f 183/322/98 184/321/98 186/323/98 185/324/98
f 185/324/99 186/323/99 188/325/99 187/326/99
f 187/326/100 188/325/100 190/327/100 189/328/100
f 189/328/101 190/327/101 192/329/101 191/330/101
f 191/330/102 192/329/102 194/331/102 193/332/102
f 193/332/103 194/331/103 196/333/103 195/334/103
f 195/334/104 196/333/104 198/335/104 197/336/104
f 140/337/105 138/338/105 200/339/105 198/340/105 196/341/105 194/342/105 192/343/105 190/344/105 188/345/105 186/346/105 184/347/105 182/348/105 180/349/105 178/350/105 176/351/105 174/352/105 172/353/105 170/354/105 168/355/105 166/356/105 164/357/105 162/358/105 160/359/105 158/360/105 156/361/105 154/362/105 152/363/105 150/364/105 148/365/105 146/366/105 144/367/105 142/368/105
f 197/336/106 198/335/106 200/369/106 199/370/106
f 199/370/107 200/369/107 138/371/107 137/372/107
f 137/373/108 139/374/108 141/375/108 143/376/108 145/377/108 147/378/108 149/379/108 151/380/108 153/381/108 155/382/108 157/383/108 159/384/108 161/385/108 163/386/108 165/387/108 167/388/108 169/389/108 171/390/108 173/391/108 175/392/108 177/393/108 179/394/108 181/395/108 183/396/108 185/397/108 187/398/108 189/399/108 191/400/108 193/401/108 195/402/108 197/403/108 199/404/108
