# Blender v2.92.0 OBJ File: 'tree.blend'
# www.blender.org
mtllib tree.mtl
o Cylinder
v 0.000000 2.165238 0.233324
v 0.000000 -0.036072 0.233324
v -0.045519 2.165238 0.228840
v -0.045519 -0.036072 0.228840
v -0.089289 2.165238 0.215563
v -0.089289 -0.036072 0.215563
v -0.129628 2.165238 0.194001
v -0.129628 -0.036072 0.194001
v -0.164985 2.165238 0.164985
v -0.164985 -0.036072 0.164985
v -0.194001 2.165238 0.129628
v -0.194001 -0.036072 0.129628
v -0.215563 2.165238 0.089289
v -0.215563 -0.036072 0.089289
v -0.228840 2.165238 0.045519
v -0.228840 -0.036072 0.045519
v -0.233324 2.165238 0.000000
v -0.233324 -0.036072 0.000000
v -0.228840 2.165238 -0.045519
v -0.228840 -0.036072 -0.045519
v -0.215563 2.165238 -0.089289
v -0.215563 -0.036072 -0.089289
v -0.194001 2.165238 -0.129628
v -0.194001 -0.036072 -0.129628
v -0.164985 2.165238 -0.164985
v -0.164985 -0.036072 -0.164985
v -0.129628 2.165238 -0.194001
v -0.129628 -0.036072 -0.194001
v -0.089289 2.165238 -0.215563
v -0.089289 -0.036072 -0.215563
v -0.045519 2.165238 -0.228840
v -0.045519 -0.036072 -0.228840
v 0.000000 2.165238 -0.233324
v 0.000000 -0.036072 -0.233324
v 0.045519 2.165238 -0.228840
v 0.045519 -0.036072 -0.228840
v 0.089289 2.165238 -0.215563
v 0.089289 -0.036072 -0.215563
v 0.129628 2.165238 -0.194001
v 0.129628 -0.036072 -0.194001
v 0.164985 2.165238 -0.164985
v 0.164985 -0.036072 -0.164985
v 0.194002 2.165238 -0.129627
v 0.194002 -0.036072 -0.129627
v 0.215563 2.165238 -0.089289
v 0.215563 -0.036072 -0.089289
v 0.228840 2.165238 -0.045519
v 0.228840 -0.036072 -0.045519
v 0.233324 2.165238 0.000000
v 0.233324 -0.036072 0.000000
v 0.228840 2.165238 0.045519
v 0.228840 -0.036072 0.045519
v 0.215563 2.165238 0.089289
v 0.215563 -0.036072 0.089289
v 0.194001 2.165238 0.129628
v 0.194001 -0.036072 0.129628
v 0.164984 2.165238 0.164985
v 0.164984 -0.036072 0.164985
v 0.129627 2.165238 0.194002
v 0.129627 -0.036072 0.194002
v 0.089289 2.165238 0.215563
v 0.089289 -0.036072 0.215563
v 0.045519 2.165238 0.228840
v 0.045519 -0.036072 0.228840
vt 1.000000 0.500000
vt 0.968750 0.500000
vt 0.968750 1.000000
vt 1.000000 1.000000
vt 0.937500 0.500000
vt 0.937500 1.000000
vt 0.906250 0.500000
vt 0.906250 1.000000
vt 0.875000 0.500000
vt 0.875000 1.000000
vt 0.843750 0.500000
vt 0.843750 1.000000
vt 0.812500 0.500000
vt 0.812500 1.000000
vt 0.781250 0.500000
vt 0.781250 1.000000
vt 0.750000 0.500000
vt 0.750000 1.000000
vt 0.718750 0.500000
vt 0.718750 1.000000
vt 0.687500 0.500000
vt 0.687500 1.000000
vt 0.656250 0.500000
vt 0.656250 1.000000
vt 0.625000 0.500000
vt 0.625000 1.000000
vt 0.593750 0.500000
vt 0.593750 1.000000
vt 0.562500 0.500000
vt 0.562500 1.000000
vt 0.531250 0.500000
vt 0.531250 1.000000
vt 0.500000 0.500000
vt 0.500000 1.000000
vt 0.468750 0.500000
vt 0.468750 1.000000
vt 0.437500 0.500000
vt 0.437500 1.000000
vt 0.406250 0.500000
vt 0.406250 1.000000
vt 0.375000 0.500000
vt 0.375000 1.000000
vt 0.343750 0.500000
vt 0.343750 1.000000
vt 0.312500 0.500000
vt 0.312500 1.000000
vt 0.281250 0.500000
vt 0.281250 1.000000
vt 0.250000 0.500000
vt 0.250000 1.000000
vt 0.218750 0.500000
vt 0.218750 1.000000
vt 0.187500 0.500000
vt 0.187500 1.000000
vt 0.156250 0.500000
vt 0.156250 1.000000
vt 0.125000 0.500000
vt 0.125000 1.000000
vt 0.093750 0.500000
vt 0.093750 1.000000
vt 0.062500 0.500000
vt 0.062500 1.000000
vt 0.296822 0.485388
vt 0.341844 0.471731
vt 0.383337 0.449553
vt 0.419706 0.419706
vt 0.449553 0.383337
vt 0.471731 0.341844
vt 0.485388 0.296822
vt 0.490000 0.250000
vt 0.485388 0.203178
vt 0.471731 0.158156
vt 0.449553 0.116663
vt 0.419706 0.080294
vt 0.383337 0.050447
vt 0.341844 0.028269
vt 0.296822 0.014612
vt 0.250000 0.010000
vt 0.203178 0.014612
vt 0.158156 0.028269
vt 0.116663 0.050447
vt 0.080294 0.080294
vt 0.050447 0.116663
vt 0.028269 0.158156
vt 0.014611 0.203179
vt 0.010000 0.250000
vt 0.014612 0.296822
vt 0.028269 0.341844
vt 0.050447 0.383337
vt 0.080295 0.419706
vt 0.116663 0.449553
vt 0.158156 0.471731
vt 0.203179 0.485389
vt 0.250000 0.490000
vt 0.031250 0.500000
vt 0.031250 1.000000
vt 0.000000 0.500000
vt 0.000000 1.000000
vt 0.750000 0.490000
vt 0.703179 0.485389
vt 0.658156 0.471731
vt 0.616663 0.449553
vt 0.580295 0.419706
vt 0.550447 0.383337
vt 0.528269 0.341844
vt 0.514612 0.296822
vt 0.510000 0.250000
vt 0.514611 0.203179
vt 0.528269 0.158156
vt 0.550447 0.116663
vt 0.580294 0.080294
vt 0.616663 0.050447
vt 0.658156 0.028269
vt 0.703178 0.014612
vt 0.750000 0.010000
vt 0.796822 0.014612
vt 0.841844 0.028269
vt 0.883337 0.050447
vt 0.919706 0.080294
vt 0.949553 0.116663
vt 0.971731 0.158156
vt 0.985388 0.203178
vt 0.990000 0.250000
vt 0.985388 0.296822
vt 0.971731 0.341844
vt 0.949553 0.383337
vt 0.919706 0.419706
vt 0.883337 0.449553
vt 0.841844 0.471731
vt 0.796822 0.485388
vn -0.0980 0.0000 0.9952
vn -0.2903 0.0000 0.9569
vn -0.4714 0.0000 0.8819
vn -0.6344 0.0000 0.7730
vn -0.7730 0.0000 0.6344
vn -0.8819 0.0000 0.4714
vn -0.9569 0.0000 0.2903
vn -0.9952 0.0000 0.0980
vn -0.9952 0.0000 -0.0980
vn -0.9569 0.0000 -0.2903
vn -0.8819 0.0000 -0.4714
vn -0.7730 0.0000 -0.6344
vn -0.6344 0.0000 -0.7730
vn -0.4714 0.0000 -0.8819
vn -0.2903 0.0000 -0.9569
vn -0.0980 0.0000 -0.9952
vn 0.0980 0.0000 -0.9952
vn 0.2903 0.0000 -0.9569
vn 0.4714 0.0000 -0.8819
vn 0.6344 0.0000 -0.7730
vn 0.7730 0.0000 -0.6344
vn 0.8819 0.0000 -0.4714
vn 0.9569 0.0000 -0.2903
vn 0.9952 0.0000 -0.0980
vn 0.9952 0.0000 0.0980
vn 0.9569 0.0000 0.2903
vn 0.8819 0.0000 0.4714
vn 0.7730 0.0000 0.6344
vn 0.6344 0.0000 0.7730
vn 0.4714 0.0000 0.8819
vn 0.0000 -1.0000 0.0000
vn 0.2903 0.0000 0.9569
vn 0.0980 0.0000 0.9952
vn 0.0000 1.0000 0.0000
usemtl None
s off
f 1/1/1 3/2/1 4/3/1 2/4/1
f 3/2/2 5/5/2 6/6/2 4/3/2
f 5/5/3 7/7/3 8/8/3 6/6/3
f 7/7/4 9/9/4 10/10/4 8/8/4
f 9/9/5 11/11/5 12/12/5 10/10/5
f 11/11/6 13/13/6 14/14/6 12/12/6
f 13/13/7 15/15/7 16/16/7 14/14/7
f 15/15/8 17/17/8 18/18/8 16/16/8
f 17/17/9 19/19/9 20/20/9 18/18/9
f 19/19/10 21/21/10 22/22/10 20/20/10
f 21/21/11 23/23/11 24/24/11 22/22/11
f 23/23/12 25/25/12 26/26/12 24/24/12
f 25/25/13 27/27/13 28/28/13 26/26/13
f 27/27/14 29/29/14 30/30/14 28/28/14
f 29/29/15 31/31/15 32/32/15 30/30/15
f 31/31/16 33/33/16 34/34/16 32/32/16
f 33/33/17 35/35/17 36/36/17 34/34/17
f 35/35/18 37/37/18 38/38/18 36/36/18
f 37/37/19 39/39/19 40/40/19 38/38/19
f 39/39/20 41/41/20 42/42/20 40/40/20
f 41/41/21 43/43/21 44/44/21 42/42/21
f 43/43/22 45/45/22 46/46/22 44/44/22
f 45/45/23 47/47/23 48/48/23 46/46/23
f 47/47/24 49/49/24 50/50/24 48/48/24
f 49/49/25 51/51/25 52/52/25 50/50/25
f 51/51/26 53/53/26 54/54/26 52/52/26
f 53/53/27 55/55/27 56/56/27 54/54/27
f 55/55/28 57/57/28 58/58/28 56/56/28
f 57/57/29 59/59/29 60/60/29 58/58/29
f 59/59/30 61/61/30 62/62/30 60/60/30
f 4/63/31 6/64/31 8/65/31 10/66/31 12/67/31 14/68/31 16/69/31 18/70/31 20/71/31 22/72/31 24/73/31 26/74/31 28/75/31 30/76/31 32/77/31 34/78/31 36/79/31 38/80/31 40/81/31 42/82/31 44/83/31 46/84/31 48/85/31 50/86/31 52/87/31 54/88/31 56/89/31 58/90/31 60/91/31 62/92/31 64/93/31 2/94/31
f 61/61/32 63/95/32 64/96/32 62/62/32
f 63/95/33 1/97/33 2/98/33 64/96/33
f 1/99/34 63/100/34 61/101/34 59/102/34 57/103/34 55/104/34 53/105/34 51/106/34 49/107/34 47/108/34 45/109/34 43/110/34 41/111/34 39/112/34 37/113/34 35/114/34 33/115/34 31/116/34 29/117/34 27/118/34 25/119/34 23/120/34 21/121/34 19/122/34 17/123/34 15/124/34 13/125/34 11/126/34 9/127/34 7/128/34 5/129/34 3/130/34
o Icosphere
v 0.000000 1.732196 0.000000
v 1.147824 2.609046 0.833933
v -0.438421 2.609045 1.349345
v -1.418786 2.609052 0.000000
v -0.438421 2.609045 -1.349345
v 1.147824 2.609046 -0.833933
v 0.438421 4.027853 1.349345
v -1.147824 4.027852 0.833933
v -1.147824 4.027852 -0.833933
v 0.438421 4.027853 -1.349345
v 1.418786 4.027846 0.000000
v 0.000000 4.904702 0.000000
v -0.257696 1.969096 0.793119
v 0.674669 1.969096 0.490170
v 0.416976 2.484496 1.283297
v 1.349343 2.484499 0.000000
v 0.674669 1.969096 -0.490170
v -0.833940 1.969100 0.000000
v -1.091642 2.484499 0.793122
v -0.257696 1.969096 -0.793119
v -1.091642 2.484499 -0.793122
v 0.416976 2.484496 -1.283297
v 1.508618 3.318449 0.490172
v 1.508618 3.318449 -0.490172
v 0.000000 3.318449 1.586253
v 0.932377 3.318449 1.283305
v -1.508618 3.318449 0.490172
v -0.932377 3.318449 1.283305
v -0.932377 3.318449 -1.283305
v -1.508618 3.318449 -0.490172
v 0.932377 3.318449 -1.283305
v 0.000000 3.318449 -1.586253
v 1.091642 4.152400 0.793122
v -0.416976 4.152402 1.283297
v -1.349343 4.152399 0.000000
v -0.416976 4.152402 -1.283297
v 1.091642 4.152400 -0.793122
v 0.257696 4.667802 0.793119
v 0.833940 4.667798 0.000000
v -0.674669 4.667802 0.490170
v -0.674669 4.667802 -0.490170
v 0.257696 4.667802 -0.793119
vt 0.818181 0.000000
vt 0.772726 0.078731
vt 0.863635 0.078731
vt 0.727272 0.157461
vt 0.681818 0.078731
vt 0.636363 0.157461
vt 0.090909 0.000000
vt 0.045454 0.078731
vt 0.136363 0.078731
vt 0.272727 0.000000
vt 0.227273 0.078731
vt 0.318182 0.078731
vt 0.454545 0.000000
vt 0.409090 0.078731
vt 0.500000 0.078731
vt 0.681818 0.236191
vt 0.909090 0.157461
vt 0.818181 0.157461
vt 0.863635 0.236191
vt 0.181818 0.157461
vt 0.090909 0.157461
vt 0.136363 0.236191
vt 0.363636 0.157461
vt 0.272727 0.157461
vt 0.318182 0.236191
vt 0.545454 0.157461
vt 0.454545 0.157461
vt 0.500000 0.236191
vt 0.772726 0.236191
vt 0.954545 0.236191
vt 0.227273 0.236191
vt 0.409090 0.236191
vt 0.590909 0.236191
vt 0.818181 0.314921
vt 0.727272 0.314921
vt 0.772726 0.393651
vt 1.000000 0.314921
vt 0.909091 0.314921
vt 0.954545 0.393651
vt 0.272727 0.314921
vt 0.181818 0.314921
vt 0.227273 0.393651
vt 0.454545 0.314921
vt 0.363636 0.314921
vt 0.409090 0.393651
vt 0.636363 0.314921
vt 0.545454 0.314921
vt 0.590909 0.393651
vt 0.500000 0.393651
vt 0.545454 0.472382
vt 0.318182 0.393651
vt 0.363636 0.472382
vt 0.136363 0.393651
vt 0.181818 0.472382
vt 0.090909 0.314921
vt 0.863635 0.393651
vt 0.909090 0.472382
vt 0.681818 0.393651
vt 0.727272 0.472382
vt 0.045454 0.236191
vt 0.000000 0.157461
vt 0.590909 0.078731
vt 0.636363 0.000000
vn 0.1024 -0.9435 0.3151
vn 0.7002 -0.6617 0.2680
vn -0.2680 -0.9435 0.1947
vn -0.2680 -0.9435 -0.1947
vn 0.1024 -0.9435 -0.3151
vn 0.9050 -0.3304 0.2680
vn 0.0247 -0.3304 0.9435
vn -0.8897 -0.3304 0.3151
vn -0.5746 -0.3304 -0.7488
vn 0.5346 -0.3304 -0.7779
vn 0.8026 -0.1256 0.5831
vn -0.3066 -0.1256 0.9435
vn -0.9921 -0.1256 0.0000
vn -0.3066 -0.1256 -0.9435
vn 0.8026 -0.1256 -0.5831
vn 0.4089 0.6617 0.6284
vn -0.4713 0.6617 0.5831
vn -0.7002 0.6617 -0.2680
vn 0.0385 0.6617 -0.7488
vn 0.7240 0.6617 -0.1947
vn 0.2680 0.9435 -0.1947
vn 0.4911 0.7947 -0.3568
vn 0.4089 0.6617 -0.6284
vn -0.1024 0.9435 -0.3151
vn -0.1876 0.7947 -0.5773
vn -0.4713 0.6617 -0.5831
vn -0.3313 0.9435 0.0000
vn -0.6071 0.7947 0.0000
vn -0.7002 0.6617 0.2680
vn -0.1024 0.9435 0.3151
vn -0.1876 0.7947 0.5773
vn 0.0385 0.6617 0.7488
vn 0.2680 0.9435 0.1947
vn 0.4911 0.7947 0.3568
vn 0.7240 0.6617 0.1947
vn 0.8897 0.3304 -0.3151
vn 0.7947 0.1876 -0.5773
vn 0.5746 0.3304 -0.7488
vn -0.0247 0.3304 -0.9435
vn -0.3035 0.1876 -0.9342
vn -0.5346 0.3304 -0.7779
vn -0.9050 0.3304 -0.2680
vn -0.9822 0.1876 0.0000
vn -0.9050 0.3304 0.2680
vn -0.5346 0.3304 0.7779
vn -0.3035 0.1876 0.9342
vn -0.0247 0.3304 0.9435
vn 0.5746 0.3304 0.7488
vn 0.7947 0.1876 0.5773
vn 0.8897 0.3304 0.3151
vn 0.3066 0.1256 -0.9435
vn 0.3035 -0.1876 -0.9342
vn 0.0247 -0.3304 -0.9435
vn -0.8026 0.1256 -0.5831
vn -0.7947 -0.1876 -0.5773
vn -0.8897 -0.3304 -0.3151
vn -0.8026 0.1256 0.5831
vn -0.7947 -0.1876 0.5773
vn -0.5746 -0.3304 0.7488
vn 0.3066 0.1256 0.9435
vn 0.3035 -0.1876 0.9342
vn 0.5346 -0.3304 0.7779
vn 0.9921 0.1256 0.0000
vn 0.9822 -0.1876 0.0000
vn 0.9050 -0.3304 -0.2680
vn 0.4713 -0.6617 -0.5831
vn 0.1876 -0.7947 -0.5773
vn -0.0385 -0.6617 -0.7488
vn -0.4089 -0.6617 -0.6284
vn -0.4911 -0.7947 -0.3568
vn -0.7240 -0.6617 -0.1947
vn -0.7240 -0.6617 0.1947
vn -0.4911 -0.7947 0.3568
vn -0.4089 -0.6617 0.6284
vn 0.7002 -0.6617 -0.2680
vn 0.6071 -0.7947 0.0000
vn 0.3313 -0.9435 0.0000
vn -0.0385 -0.6617 0.7488
vn 0.1876 -0.7947 0.5773
vn 0.4713 -0.6617 0.5831
usemtl None
s off
f 65/131/35 78/132/35 77/133/35
f 66/134/36 78/135/36 80/136/36
f 65/137/37 77/138/37 82/139/37
f 65/140/38 82/141/38 84/142/38
f 65/143/39 84/144/39 81/145/39
f 66/134/40 80/136/40 87/146/40
f 67/147/41 79/148/41 89/149/41
f 68/150/42 83/151/42 91/152/42
f 69/153/43 85/154/43 93/155/43
f 70/156/44 86/157/44 95/158/44
f 66/134/45 87/146/45 90/159/45
f 67/147/46 89/149/46 92/160/46
f 68/150/47 91/152/47 94/161/47
f 69/153/48 93/155/48 96/162/48
f 70/156/49 95/158/49 88/163/49
f 71/164/50 97/165/50 102/166/50
f 72/167/51 98/168/51 104/169/51
f 73/170/52 99/171/52 105/172/52
f 74/173/53 100/174/53 106/175/53
f 75/176/54 101/177/54 103/178/54
f 103/178/55 106/179/55 76/180/55
f 103/178/56 101/177/56 106/179/56
f 101/177/57 74/173/57 106/179/57
f 106/175/58 105/181/58 76/182/58
f 106/175/59 100/174/59 105/181/59
f 100/174/60 73/170/60 105/181/60
f 105/172/61 104/183/61 76/184/61
f 105/172/62 99/171/62 104/183/62
f 99/171/63 72/185/63 104/183/63
f 104/169/64 102/186/64 76/187/64
f 104/169/65 98/168/65 102/186/65
f 98/168/66 71/164/66 102/186/66
f 102/166/67 103/188/67 76/189/67
f 102/166/68 97/165/68 103/188/68
f 97/165/69 75/176/69 103/188/69
f 88/163/70 101/177/70 75/176/70
f 88/163/71 95/158/71 101/177/71
f 95/158/72 74/173/72 101/177/72
f 96/162/73 100/174/73 74/173/73
f 96/162/74 93/155/74 100/174/74
f 93/155/75 73/170/75 100/174/75
f 94/161/76 99/171/76 73/170/76
f 94/161/77 91/152/77 99/171/77
f 91/152/78 72/185/78 99/171/78
f 92/160/79 98/168/79 72/167/79
f 92/160/80 89/149/80 98/168/80
f 89/149/81 71/164/81 98/168/81
f 90/159/82 97/165/82 71/164/82
f 90/159/83 87/146/83 97/165/83
f 87/146/84 75/176/84 97/165/84
f 95/158/85 96/162/85 74/173/85
f 95/158/86 86/157/86 96/162/86
f 86/157/87 69/153/87 96/162/87
f 93/155/88 94/161/88 73/170/88
f 93/155/89 85/154/89 94/161/89
f 85/154/90 68/150/90 94/161/90
f 91/152/91 92/190/91 72/185/91
f 91/152/92 83/151/92 92/190/92
f 83/151/93 67/191/93 92/190/93
f 89/149/94 90/159/94 71/164/94
f 89/149/95 79/148/95 90/159/95
f 79/148/96 66/134/96 90/159/96
f 87/146/97 88/163/97 75/176/97
f 87/146/98 80/136/98 88/163/98
f 80/136/99 70/156/99 88/163/99
f 81/145/100 86/157/100 70/156/100
f 81/145/101 84/144/101 86/157/101
f 84/144/102 69/153/102 86/157/102
f 84/142/103 85/154/103 69/153/103
f 84/142/104 82/141/104 85/154/104
f 82/141/105 68/150/105 85/154/105
f 82/139/106 83/151/106 68/150/106
f 82/139/107 77/138/107 83/151/107
f 77/138/108 67/191/108 83/151/108
f 80/136/109 81/192/109 70/156/109
f 80/136/110 78/135/110 81/192/110
f 78/135/111 65/193/111 81/192/111
f 77/133/112 79/148/112 67/147/112
f 77/133/113 78/132/113 79/148/113
f 78/132/114 66/134/114 79/148/114
